<?xml version="1.0" encoding="utf-8"?>
<!-- Generator: Adobe Illustrator 24.1.2, SVG Export Plug-In . SVG Version: 6.00 Build 0)  -->
<svg version="1.1" id="blobSvg" xmlns="http://www.w3.org/2000/svg" xmlns:xlink="http://www.w3.org/1999/xlink" x="0px" y="0px"
	 viewBox="0 0 972 500" style="enable-background:new 0 0 972 500;" xml:space="preserve">
<style type="text/css">
	.st0{fill:#FFFFFF;}
	.st1{fill:#0E86C1;}
</style>
<g>
	<path class="st0" d="M496.6,128.2c10,4.7,19.7,9.6,29.6,13.8c1.8,0.7,5.4-0.5,6.9-2c6.9-7.1,14-14,19.7-22
		c7.5-10.4,11-22.6,10.6-35.5c-0.1-1.9-2.2-5.3-3.6-5.4c-8.8-0.5-17.7-0.3-25.9-0.3c-1.3,6.8-2.3,12.4-3.6,18
		c-1,4.1-3.8,5.5-8.1,5.5c-24.2-0.2-48.4-0.2-72.5,0c-4.3,0-7.1-1.4-8-5.6c-1.3-5.8-2.4-11.6-3.6-17.4c-9.7,0-19.2,0-29,0
		c-1.7,11.1,0.5,21.1,4.7,30.8c10,23,28.6,37.3,50.3,48c13.6,6.7,27.8,12.4,41.4,19.1c5.6,2.8,10.6,6.8,15.9,10.3
		c-0.3,0.5-0.6,1-0.9,1.6c-23,0-46,0-69,0c-0.2-0.6-0.5-1.3-0.7-1.9c7.8-4.9,15.7-9.9,23.8-15c-8.8-4.6-17.5-8.8-25.7-13.8
		c-4.5-2.8-7.7-2.1-11.7,0.8c-36.1,26.2-37.7,72.2-2,98.8c12.5,9.3,27.9,15,42.3,21.8c11.3,5.4,23.1,9.7,34.5,15
		c3.8,1.8,6.8,5.3,11.8,9.3c-26.1,0-49.7,0-73.2,0c-0.3-0.7-0.6-1.4-0.9-2.2c7.7-4.9,15.4-9.8,23.2-14.8c-10.5-5-20.4-9.9-30.5-14.5
		c-1.4-0.6-3.9-0.1-5.2,0.9c-21,14.9-35.5,42.7-23.4,71.2c8.1,19.1,23.2,31.2,41.2,40c13.7,6.7,27.9,12.2,41.5,19.1
		c7.8,3.9,14.9,9.4,22.3,14.1c-0.3,0.6-0.6,1.2-0.9,1.8c-21,0-42.1,0-63.1,0c2.9-4.1,6.2-6.9,9.7-9.3c3.5-2.4,7.2-4.6,11.8-7.5
		c-6.9-3.1-12.7-5.5-18.4-8.1c-16.7-7.8-16.7-7.8-29.4,6.1c-2.1,2.3-4.2,4.7-6,7.3c-9,12.5-14.4,26.2-13.6,41.9
		c0.1,2,2.1,5.5,3.4,5.6c8.8,0.5,17.7,0.3,26.1,0.3c1.2-7,2.2-13.1,3.4-19.2c0.9-4.3,3.6-6.1,8.4-6.1c24.2,0.2,48.4,0,72.5,0.3
		c2.6,0,6.6,2.6,7.3,4.8c2.1,6.2,2.8,12.9,4,19.8c9.3,0,18.9,0,29.2,0c0.2-2.6,0.6-5,0.5-7.3c-0.2-20.3-9-36.7-23.1-50.8
		c-12.3-12.3-27.4-20.4-43.1-27.5c-12.9-5.9-25.8-12.1-38.5-18.5c-3-1.5-5.3-4.3-9.5-7.8c25.2,0,47.9,0,70.6,0
		c0.4,0.7,0.7,1.4,1.1,2.1c-7.8,5-15.5,10-23.5,15.2c9.6,5.2,18.9,10.4,28.4,15.1c1.7,0.8,4.9,0.4,6.6-0.7
		c32.3-22.2,40.1-59.7,16.1-89c-11.9-14.5-27.9-22.7-44.9-29.5c-14.8-5.9-29.4-12.1-44-18.6c-3.7-1.6-6.6-4.9-9.9-7.5
		c0.3-0.6,0.6-1.1,0.9-1.7c23.4,0,46.8,0,70.3,0c0.4,0.7,0.7,1.4,1.1,2.2c-7.6,4.9-15.1,9.8-23,14.9c10.5,5,20.7,10,31,14.6
		c1.3,0.6,3.9-0.3,5.2-1.3c13.2-9.8,22.9-22.3,26.1-38.8c4.8-25.1-5.2-45-24.8-59.4c-11.9-8.8-26-14.6-39.2-21.6
		c-12.3-6.6-24.8-12.8-37.1-19.5c-2.5-1.3-4.3-3.9-7.6-7c22.9,0,43.7,0,64.5,0c0.3,0.6,0.7,1.3,1,1.9
		C511.2,117.9,504.1,123,496.6,128.2z"/>
	<path class="st1" d="M496.6,128.2c7.5-5.3,14.6-10.3,21.6-15.3c-0.3-0.6-0.7-1.3-1-1.9c-20.8,0-41.6,0-64.5,0
		c3.4,3.1,5.2,5.7,7.6,7c12.3,6.7,24.8,12.9,37.1,19.5c13.2,7,27.3,12.8,39.2,21.6c19.5,14.5,29.6,34.3,24.8,59.4
		c-3.2,16.5-12.8,28.9-26.1,38.8c-1.4,1-3.9,1.9-5.2,1.3c-10.3-4.6-20.4-9.6-31-14.6c7.9-5.1,15.4-10,23-14.9
		c-0.4-0.7-0.7-1.4-1.1-2.2c-23.4,0-46.8,0-70.3,0c-0.3,0.6-0.6,1.1-0.9,1.7c3.3,2.5,6.2,5.8,9.9,7.5c14.5,6.5,29.2,12.7,44,18.6
		c17,6.8,33,15,44.9,29.5c24,29.3,16.2,66.8-16.1,89c-1.6,1.1-4.9,1.6-6.6,0.7c-9.5-4.7-18.7-9.9-28.4-15.1
		c8-5.2,15.7-10.2,23.5-15.2c-0.4-0.7-0.7-1.4-1.1-2.1c-22.7,0-45.5,0-70.6,0c4.2,3.5,6.5,6.3,9.5,7.8c12.7,6.4,25.5,12.6,38.5,18.5
		c15.7,7.2,30.8,15.2,43.1,27.5c14,14,22.8,30.5,23.1,50.8c0,2.3-0.3,4.7-0.5,7.3c-10.3,0-19.9,0-29.2,0c-1.3-6.8-2-13.5-4-19.8
		c-0.7-2.3-4.8-4.8-7.3-4.8c-24.2-0.4-48.4-0.1-72.5-0.3c-4.7,0-7.4,1.7-8.4,6.1c-1.3,6-2.2,12.1-3.4,19.2c-8.4,0-17.2,0.2-26.1-0.3
		c-1.3-0.1-3.3-3.6-3.4-5.6c-0.8-15.6,4.6-29.4,13.6-41.9c1.8-2.5,3.9-5,6-7.3c12.7-13.9,12.7-13.9,29.4-6.1
		c5.7,2.6,11.4,5,18.4,8.1c-4.6,2.9-8.3,5.1-11.8,7.5c-3.5,2.4-6.8,5.2-9.7,9.3c21,0,42.1,0,63.1,0c0.3-0.6,0.6-1.2,0.9-1.8
		c-7.4-4.8-14.5-10.2-22.3-14.1c-13.6-6.8-27.8-12.4-41.5-19.1c-18-8.8-33.1-20.9-41.2-40c-12.1-28.5,2.4-56.3,23.4-71.2
		c1.3-0.9,3.9-1.5,5.2-0.9c10.1,4.6,20,9.5,30.5,14.5c-7.8,5-15.5,9.9-23.2,14.8c0.3,0.7,0.6,1.4,0.9,2.2c23.6,0,47.1,0,73.2,0
		c-5-4-8-7.5-11.8-9.3c-11.3-5.3-23.1-9.7-34.5-15c-14.3-6.8-29.7-12.4-42.3-21.8c-35.7-26.6-34.1-72.6,2-98.8
		c4-2.9,7.2-3.5,11.7-0.8c8.2,5,16.9,9.1,25.7,13.8c-8.1,5.1-15.9,10-23.8,15c0.2,0.6,0.5,1.3,0.7,1.9c23,0,46,0,69,0
		c0.3-0.5,0.6-1,0.9-1.6c-5.3-3.5-10.3-7.6-15.9-10.3c-13.7-6.7-27.8-12.4-41.4-19.1c-21.7-10.7-40.3-25-50.3-48
		c-4.2-9.6-6.4-19.7-4.7-30.8c9.8,0,19.3,0,29,0c1.2,5.8,2.3,11.6,3.6,17.4c1,4.1,3.7,5.6,8,5.6c24.2-0.2,48.4-0.2,72.5,0
		c4.3,0,7.1-1.3,8.1-5.5c1.3-5.6,2.3-11.2,3.6-18c8.3,0,17.1-0.2,25.9,0.3c1.3,0.1,3.5,3.5,3.6,5.4c0.4,12.9-3.1,25.1-10.6,35.5
		c-5.7,8-12.8,15-19.7,22c-1.5,1.5-5.1,2.8-6.9,2C516.3,137.8,506.6,133,496.6,128.2z M486,216.3c12.5,0,25.1-0.2,37.6,0.1
		c6.6,0.2,8.6-3.3,8.4-8.9c-0.2-5.5-1.2-9.7-8.5-9.6c-25.1,0.3-50.1,0.3-75.2,0c-7.5-0.1-8.2,4.3-8.3,9.7c-0.2,5.7,1.9,9,8.4,8.8
		C461,216.1,473.5,216.3,486,216.3z M485.9,312.8c-12.3,0-24.6,0.3-36.9-0.1c-6.8-0.2-9.2,2.7-9,8.9c0.2,5.7,1.7,9.4,8.8,9.3
		c24.9-0.3,49.7-0.3,74.6,0c7.2,0.1,8.6-3.8,8.7-9.5c0.1-5.7-2-8.9-8.5-8.7C511,313.1,498.4,312.8,485.9,312.8z"/>
	<path class="st0" d="M486,216.3c-12.5,0-25.1-0.2-37.6,0.1c-6.6,0.2-8.6-3.1-8.4-8.8c0.2-5.4,0.8-9.8,8.3-9.7
		c25.1,0.3,50.1,0.3,75.2,0c7.4-0.1,8.4,4.1,8.5,9.6c0.2,5.6-1.8,9.1-8.4,8.9C511.1,216.1,498.6,216.3,486,216.3z"/>
	<path class="st0" d="M485.9,312.8c12.6,0,25.1,0.3,37.7-0.1c6.6-0.2,8.6,3,8.5,8.7c-0.1,5.7-1.5,9.6-8.7,9.5
		c-24.9-0.3-49.7-0.3-74.6,0c-7.1,0.1-8.6-3.6-8.8-9.3c-0.2-6.2,2.2-9.2,9-8.9C461.2,313.2,473.6,312.8,485.9,312.8z"/>
</g>
</svg>
