<?xml version="1.0" encoding="utf-8"?>
<!-- Generator: Adobe Illustrator 24.1.2, SVG Export Plug-In . SVG Version: 6.00 Build 0)  -->
<svg version="1.1" id="blobSvg" xmlns="http://www.w3.org/2000/svg" xmlns:xlink="http://www.w3.org/1999/xlink" x="0px" y="0px"
	 viewBox="0 0 972 500" style="enable-background:new 0 0 972 500;" xml:space="preserve">
<style type="text/css">
	.st0{fill:#FFFFFF;}
	.st1{fill:#74AE43;}
</style>
<g>
	<path class="st0" d="M301.6,301.7c-0.8,0.9-3.1,2.6-4.2,4.9c-1.5,3-0.9,5.8,2.5,7.7c3.5,1.9,6.8,4.1,10.3,6
		c3.4,1.9,5.8,4.1,5.1,8.5c-0.7,4-3.2,5.7-6.8,6.5c-3.9,0.9-7.6,2.2-11.5,3.2c-4,1-4.9,3.6-4.6,7.3c0.2,3.5,1.7,5.5,5.5,5.9
		c4.5,0.5,9.1,0.9,13.4,2.2c2.3,0.7,5.1,3,5.6,5.1c0.5,2.4-0.5,5.9-2.2,7.8c-3,3.3-6.9,5.9-10.5,8.6c-3,2.3-3.1,4.8-1.5,8
		c1.5,3.1,3.5,4.8,7.2,3.7c4-1.1,8.1-2,12.1-3.1c3.6-1.1,6.6-0.6,9,2.6c2.4,3.3,1.9,6.2,0,9.4c-2,3.4-3.8,7-5.9,10.4
		c-1.9,3.1-1.3,5.7,1.4,8c2.7,2.4,5.4,3.3,8.6,0.7c3.5-2.9,7-6,10.9-8.1c2.1-1.1,5.7-1.3,7.7-0.3c2,1.1,3.8,4.3,3.9,6.6
		c0.2,4.7-0.7,9.4-1.4,14.1c-0.5,3.8,1.5,5.6,4.7,6.7c3.2,1.1,5.9,0.9,7.8-2.5c2.2-4,4.2-8.2,7-11.6c1.6-1.9,5.1-3.7,7.4-3.4
		c2.3,0.3,5,3,6.2,5.3c1.8,3.5,2.6,7.5,3.4,11.4c0.9,4.3,3,6,7.5,5.8c4.8-0.2,5.9-3,6.3-7c0.4-3.9,0.7-8,2-11.7
		c0.8-2.3,2.9-5.2,5-5.7c2.4-0.6,5.9,0.5,7.9,2.2c3.2,2.8,5.7,6.6,8.2,10.1c2.3,3.2,4.8,3.7,8.3,1.9c3.5-1.7,4.7-4.1,3.7-7.8
		c-1.1-4-2.7-8-2.9-12.1c-0.2-2.8,1-6.1,2.7-8.3c2.2-3,5.6-2.3,8.7-0.4c3.6,2.1,7.3,4,10.9,6.1c3.4,2.1,6.1,1.1,8.4-1.7
		c2.2-2.6,2.7-5.2,0.3-8.1c-2.7-3.4-5.7-6.7-7.7-10.5c-1.2-2.3-1.7-6.1-0.6-8.1c1.1-2.1,4.6-3.8,7.1-3.9c4.5-0.2,9,0.9,13.5,1.5
		c3.7,0.5,5.7-1.5,6.7-4.7c1-3.1,1-5.9-2.4-7.8c-3.8-2.1-7.9-4-11.1-6.8c-2.1-1.8-4.2-5.3-3.9-7.6c0.3-2.4,3.2-5.2,5.7-6.5
		c3.8-1.9,8.2-2.7,12.5-3.7c3.9-0.9,4.6-3.5,4.3-6.8c-0.2-3.4-1.6-5.7-5.4-6.1c-4.7-0.6-9.5-0.9-13.9-2.3c-2.2-0.7-4.9-3.2-5.4-5.4
		c-0.5-2.2,0.7-5.6,2.3-7.4c2.9-3.2,6.5-5.7,10.1-8.2c3.2-2.3,3.7-4.9,2-8.3c-1.6-3.4-3.8-5-7.7-3.8c-3.4,1.1-7,1.8-10.4,2.8
		c-3.8,1.1-7.3,1.8-10.2-2.1c-2.9-3.8-1.6-7,0.4-10.4c1.9-3.2,3.7-6.6,5.6-9.9c1.9-3.3,0.7-5.8-1.8-8c-2.6-2.3-5.2-2.8-8.2-0.5
		c-3.6,2.8-7,6-11,8c-2.3,1.2-6,1.3-8.2,0.1c-1.9-1-3.4-4.4-3.5-6.8c-0.2-4.5,0.6-9,1.4-13.5c0.7-4.3-1.8-5.8-5-7
		c-3.3-1.2-5.8-0.3-7.6,2.9c-2.1,3.8-4.5,7.5-6.5,11.3c-1.8,3.4-4.7,4.9-7.9,3.6c-2.4-1-4.9-3.3-6.1-5.7c-1.7-3.5-2.5-7.5-3.3-11.4
		c-0.9-4-2.9-5.9-7.1-5.6c-4.1,0.3-6.1,2.2-6.4,6.3c-0.4,4.3-0.7,8.8-2.1,12.8c-0.7,2.3-3.2,4.9-5.4,5.5c-2.2,0.6-5.5-0.5-7.4-2.1
		c-2.8-2.4-4.9-5.7-7.1-8.8c-2.5-3.5-5.1-5.9-9.9-3.5c-4.6,2.3-4.1,5.7-2.9,9.6c1,3.4,2.4,6.9,2.6,10.4c0.1,2.6-0.7,6.4-2.5,7.7
		c-2.1,1.5-6,1.6-8.6,0.8c-3.9-1.2-7.4-3.7-10.9-5.9c-3.3-2-6-1.6-8.5,1.3c-2.7,3-2.8,5.9-0.2,9c2.8,3.3,5.8,6.6,7.8,10.4
		c1.1,2.1,1.2,5.7,0.1,7.7c-1.1,1.9-4.3,3.6-6.7,3.7C313.2,303.3,308.5,302.4,301.6,301.7z M711.6,185.9c-0.3-6-1.7-9.3-7.1-9
		c-3.4,0.2-6.8-0.4-10.2-0.2c-4.7,0.3-6.3-2.5-7.3-6.3c-0.9-3.6-1.5-7,2.7-9.3c3.3-1.8,6.4-4.1,9.6-6c3.5-2,3.7-4.7,2.4-8.2
		c-1.4-3.7-3.8-4.9-7.5-4c-3.3,0.8-6.7,1.3-9.9,2.4c-4.8,1.7-7.2-0.6-9.6-4.5c-2.5-4.1-1.7-7,1.5-10c2.3-2.2,4.3-4.8,6.6-7
		c2.8-2.7,3.2-5.3,0.8-8.5c-2.4-3.2-5.1-4.3-8.8-2.2c-3,1.7-6.1,3-9,4.9c-4,2.6-6.9,1.5-10-1.6c-3-3.1-4.3-6-1.6-10
		c1.9-2.8,3.2-6,4.8-9c2.1-3.7,1.1-6.4-2.2-8.8c-3.2-2.4-5.9-1.9-8.6,0.7c-2.4,2.4-5.2,4.5-7.4,7c-3,3.4-5.9,3.3-9.5,1.2
		c-3.5-2.1-6.2-4.2-4.6-9c1.2-3.6,1.7-7.4,2.6-11c1-3.7-0.8-5.6-4-7c-3.1-1.3-5.9-1.6-7.9,1.7c-2.1,3.4-4.4,6.6-6.3,10.1
		c-2.4,4.6-6,3.6-9.8,2.7c-3.9-0.9-5.9-2.9-5.7-7.1c0.2-3.6-0.3-7.2-0.2-10.8c0-4-2.1-5.8-5.8-6.2c-3.6-0.5-6.3,0.2-7.3,4.3
		c-0.9,3.7-2.4,7.2-3.2,10.9c-1.1,4.6-4.3,5.1-8.2,5.1c-3.8,0-6.7-0.8-7.7-5c-0.9-3.5-2.2-6.8-3.1-10.3c-1-4-3.3-5.6-7.5-5
		c-4.1,0.5-6,2.5-5.9,6.8c0.1,3.6-0.4,7.2-0.3,10.8c0.2,4.8-3.1,6-6.7,6.9c-3.6,1-6.6,0.9-8.7-2.9c-1.9-3.5-4.2-6.8-6.3-10.1
		c-2-3.2-4.8-3.2-7.9-1.8c-3.2,1.4-4.9,3.3-4,7c1,4,1.7,8.1,2.8,12.2c1.2,4.5-2,6.1-4.9,7.8c-2.9,1.7-5.7,2.8-8.6-0.3
		c-2.7-2.9-5.8-5.4-8.6-8.2c-2.9-2.8-5.7-2.2-8.6,0c-2.8,2.1-3.7,4.7-1.9,7.9c1.8,3.3,3.3,6.8,5.4,10c2.5,3.9,0.8,6.6-2,9.4
		c-2.8,2.8-5.5,4.4-9.4,2c-3.4-2.1-7-3.7-10.5-5.6c-3.5-1.8-5.7-0.1-7.7,2.6c-1.9,2.6-2.5,5-0.1,7.6c2.7,2.9,5.3,5.9,8.1,8.7
		c2.7,2.7,2.8,5.2,1.1,8.6c-2.4,4.8-5.5,6.9-10.9,4.9c-2.6-1-5.5-1.2-8.3-2c-3.9-1.1-6.5-0.3-8.2,3.7c-1.8,4.1-0.8,6.8,3,8.9
		c2.5,1.3,4.7,3.2,7.2,4.5c4.3,2.2,6.1,4.9,4.6,10c-1.5,5.2-4.4,7-9.5,6.5c-2.6-0.2-5.3,0.3-7.9,0.2c-4-0.1-6.4,1.2-7,5.5
		c-0.6,4.4,0.9,6.8,5.2,7.8c2.9,0.7,5.7,2.1,8.7,2.6c4.9,0.9,6.4,3.6,6.4,8.3c0,4.8-1.8,7.4-6.5,8.4c-3.3,0.7-6.5,2.1-9.8,2.9
		c-4.2,1.1-4.4,4-4,7.5c0.4,3.5,2.1,5.5,5.8,5.5c4,0,7.9,0.4,11.9,0.3c5-0.1,5.6,3.6,6.7,7c1.1,3.5,0.8,6.2-2.7,8.2
		c-3,1.6-5.7,3.7-8.7,5.3c-3.9,2.2-5.3,4.9-3.4,9.3c1.9,4.5,5.2,4.2,8.9,3.3c2.9-0.7,6-1,8.8-2c4.8-1.8,7,0.7,9,4.3
		c2,3.4,2.8,6.4-0.7,9.5c-2.8,2.5-5.1,5.6-7.7,8.3c-2.9,3-1.9,5.7,0.3,8.5c2.2,2.9,4.8,3.4,7.9,1.7c3.3-1.8,6.8-3.4,10-5.4
		c4.1-2.6,6.7-0.4,9.4,2.3c2.6,2.6,4.2,5.2,1.9,9c-2.2,3.5-4.5,7.2-5.6,11.1c-0.6,2,0.8,5.6,2.5,6.9c1.7,1.3,5.5,1.5,7.3,0.4
		c3.5-2.1,6.4-5.2,9.3-8.2c2.6-2.7,5-2.5,8.1-1c4.7,2.3,7.1,5.3,5.1,10.8c-0.9,2.7-1.2,5.6-2,8.3c-1.2,3.8-0.6,6.6,3.4,8.3
		c3.9,1.6,6.9,1.2,9-2.9c1.3-2.5,3.2-4.7,4.4-7.2c2-4,4.5-6.2,9.4-4.9c4.8,1.3,7.6,3.7,7.2,9.1c-0.2,2.8,0.2,5.7,0.2,8.5
		c-0.1,3.9,1.1,6.6,5.5,7.1c4.1,0.5,7-0.6,7.9-5.1c0.6-2.8,1.8-5.4,2.4-8.2c1-4.7,3.1-7.1,8.5-7c5.1,0.1,7.7,1.8,8.6,6.8
		c0.6,3.1,1.9,6.1,2.7,9.2c1.1,4.1,4,4.6,7.5,4.2c3.5-0.4,5.6-2,5.6-5.8c0-3.8,0.5-7.6,0.2-11.3c-0.3-5.2,3.3-6.3,7-7.4
		c3.6-1.1,6.6-0.6,8.6,3.2c1.5,2.8,3.5,5.4,5,8.2c2.1,3.9,4.8,5.6,9.2,3.6c4.2-1.9,4.7-4.8,3.5-8.8c-1.1-3.4-2.1-7-2.2-10.5
		c-0.1-2,1-4.8,2.5-6.1c5.7-4.7,7.5-4.4,13,0.8c1.9,1.8,4,3.5,5.8,5.4c2.7,2.9,5.4,3.6,8.9,1.1c3.7-2.7,3.9-5.7,1.9-9.3
		c-1.5-2.6-2.7-5.4-4.4-7.9c-2.5-3.7-2.3-6.7,1-10c3.2-3.1,6-5,10.3-2.1c2.8,1.9,6,3.2,9,4.9c3.7,2.1,6.3,1.2,8.7-2.1
		c2.3-3.2,2.2-5.8-0.6-8.5c-2.5-2.4-4.5-5.1-7.1-7.4c-3.8-3.4-2.8-6.8-0.6-10.6c2.1-3.7,4.6-5.1,8.8-3.6c2.8,1,5.9,1.3,8.8,2.1
		c3.9,1.1,6.9,0.7,8.8-3.6c1.8-4.2,0.5-6.8-3.2-8.8c-2.8-1.6-5.4-3.6-8.2-5.1c-4-2-4.5-5.1-3.4-9c1.1-3.9,2.5-7.1,7.5-6.8
		c3.6,0.2,7.2-0.2,10.8-0.2c4,0,5.7-2.1,6.3-5.9c0.5-3.8-0.6-6.2-4.5-7.3c-3.8-1.1-7.6-2.5-11.4-3.5c-4.4-1.2-4.4-4.6-4.4-8.1
		c0-3.3,0.2-6.4,4.4-7.5c3.9-0.9,7.7-2,11.3-3.6C708.9,189,710.5,186.9,711.6,185.9z"/>
	<path class="st1" d="M301.6,301.7c6.9,0.6,11.6,1.6,16.3,1.3c2.4-0.1,5.6-1.8,6.7-3.7c1.1-2,1-5.6-0.1-7.7c-2-3.8-5-7.1-7.8-10.4
		c-2.6-3.2-2.5-6,0.2-9c2.6-2.9,5.2-3.3,8.5-1.3c3.5,2.2,7.1,4.7,10.9,5.9c2.6,0.8,6.5,0.7,8.6-0.8c1.8-1.3,2.6-5.1,2.5-7.7
		c-0.2-3.5-1.5-7-2.6-10.4c-1.1-3.9-1.7-7.2,2.9-9.6c4.8-2.4,7.3,0,9.9,3.5c2.2,3.1,4.3,6.4,7.1,8.8c1.8,1.5,5.2,2.7,7.4,2.1
		c2.2-0.6,4.6-3.2,5.4-5.5c1.3-4.1,1.7-8.5,2.1-12.8c0.3-4.2,2.3-6.1,6.4-6.3c4.2-0.3,6.2,1.6,7.1,5.6c0.8,3.9,1.6,7.9,3.3,11.4
		c1.2,2.4,3.6,4.7,6.1,5.7c3.3,1.4,6.1-0.2,7.9-3.6c2-3.8,4.5-7.5,6.5-11.3c1.8-3.2,4.2-4.1,7.6-2.9c3.2,1.2,5.7,2.7,5,7
		c-0.8,4.5-1.5,9-1.4,13.5c0.1,2.4,1.6,5.8,3.5,6.8c2.2,1.1,6,1,8.2-0.1c4-2,7.4-5.2,11-8c2.9-2.3,5.6-1.8,8.2,0.5
		c2.5,2.2,3.7,4.7,1.8,8c-1.9,3.3-3.6,6.6-5.6,9.9c-2.1,3.4-3.3,6.7-0.4,10.4c2.9,3.8,6.4,3.1,10.2,2.1c3.5-1,7-1.7,10.4-2.8
		c3.9-1.2,6,0.4,7.7,3.8c1.7,3.5,1.2,6-2,8.3c-3.5,2.5-7.2,5-10.1,8.2c-1.6,1.8-2.8,5.2-2.3,7.4c0.5,2.2,3.2,4.7,5.4,5.4
		c4.5,1.4,9.3,1.8,13.9,2.3c3.8,0.5,5.1,2.7,5.4,6.1c0.2,3.3-0.5,5.9-4.3,6.8c-4.2,1-8.6,1.8-12.5,3.7c-2.5,1.2-5.4,4-5.7,6.5
		c-0.3,2.4,1.8,5.8,3.9,7.6c3.2,2.8,7.3,4.7,11.1,6.8c3.4,1.9,3.5,4.6,2.4,7.8c-1.1,3.2-3,5.2-6.7,4.7c-4.5-0.6-9-1.7-13.5-1.5
		c-2.5,0.1-6,1.9-7.1,3.9c-1.1,2.1-0.6,5.8,0.6,8.1c2,3.8,4.9,7.1,7.7,10.5c2.4,2.9,1.9,5.5-0.3,8.1c-2.4,2.8-5,3.8-8.4,1.7
		c-3.6-2.1-7.3-4-10.9-6.1c-3.1-1.9-6.5-2.5-8.7,0.4c-1.7,2.2-2.8,5.6-2.7,8.3c0.2,4.1,1.8,8.1,2.9,12.1c1,3.7-0.2,6.1-3.7,7.8
		c-3.5,1.7-6,1.2-8.3-1.9c-2.6-3.5-5-7.3-8.2-10.1c-1.9-1.7-5.5-2.8-7.9-2.2c-2.1,0.5-4.2,3.4-5,5.7c-1.3,3.7-1.6,7.8-2,11.7
		c-0.4,4-1.5,6.8-6.3,7c-4.4,0.2-6.6-1.5-7.5-5.8c-0.8-3.9-1.6-7.9-3.4-11.4c-1.2-2.3-3.9-5-6.2-5.3c-2.3-0.3-5.7,1.5-7.4,3.4
		c-2.9,3.4-4.8,7.6-7,11.6c-1.9,3.3-4.6,3.6-7.8,2.5c-3.2-1.1-5.2-2.9-4.7-6.7c0.6-4.7,1.6-9.4,1.4-14.1c-0.1-2.3-1.9-5.5-3.9-6.6
		c-2-1.1-5.6-0.9-7.7,0.3c-3.9,2.1-7.4,5.2-10.9,8.1c-3.2,2.6-5.9,1.7-8.6-0.7c-2.7-2.3-3.2-4.9-1.4-8c2-3.4,3.8-7,5.9-10.4
		c1.9-3.2,2.4-6.2,0-9.4c-2.4-3.2-5.4-3.7-9-2.6c-4,1.2-8.1,2-12.1,3.1c-3.7,1.1-5.7-0.7-7.2-3.7c-1.6-3.1-1.5-5.7,1.5-8
		c3.6-2.7,7.5-5.3,10.5-8.6c1.7-1.9,2.7-5.5,2.2-7.8c-0.5-2.1-3.3-4.4-5.6-5.1c-4.3-1.3-8.9-1.7-13.4-2.2c-3.7-0.4-5.2-2.4-5.5-5.9
		c-0.2-3.6,0.6-6.3,4.6-7.3c3.9-0.9,7.6-2.2,11.5-3.2c3.6-0.9,6.2-2.6,6.8-6.5c0.7-4.4-1.7-6.6-5.1-8.5c-3.5-1.9-6.8-4.1-10.3-6
		c-3.3-1.8-4-4.7-2.5-7.7C298.5,304.4,300.8,302.6,301.6,301.7z M367.5,338.7c0.1,13.9,11.4,25.2,25.4,25.1
		c13.9-0.1,25.3-11.5,25.2-25.4c-0.1-13.8-11.7-25.4-25.4-25.3C379,313.2,367.5,324.9,367.5,338.7z"/>
	<path class="st1" d="M711.6,185.9c-1.1,1-2.7,3-4.8,3.9c-3.6,1.6-7.5,2.7-11.3,3.6c-4.2,1-4.4,4.1-4.4,7.5c0,3.5,0,6.9,4.4,8.1
		c3.8,1,7.6,2.4,11.4,3.5c3.9,1.1,5,3.5,4.5,7.3c-0.5,3.7-2.3,5.9-6.3,5.9c-3.6,0-7.2,0.4-10.8,0.2c-5-0.3-6.4,2.9-7.5,6.8
		c-1.1,3.9-0.6,7,3.4,9c2.9,1.4,5.4,3.5,8.2,5.1c3.7,2.1,5,4.6,3.2,8.8c-1.9,4.3-4.9,4.7-8.8,3.6c-2.9-0.8-6-1.1-8.8-2.1
		c-4.2-1.5-6.7,0-8.8,3.6c-2.2,3.8-3.2,7.1,0.6,10.6c2.5,2.3,4.6,5,7.1,7.4c2.8,2.7,2.9,5.3,0.6,8.5c-2.4,3.3-5.1,4.2-8.7,2.1
		c-2.9-1.7-6.2-3-9-4.9c-4.3-3-7.1-1-10.3,2.1c-3.4,3.3-3.5,6.3-1,10c1.7,2.5,2.9,5.3,4.4,7.9c2,3.7,1.9,6.6-1.9,9.3
		c-3.5,2.6-6.2,1.8-8.9-1.1c-1.8-1.9-3.9-3.6-5.8-5.4c-5.4-5.2-7.2-5.5-13-0.8c-1.5,1.3-2.6,4.1-2.5,6.1c0.2,3.5,1.2,7.1,2.2,10.5
		c1.2,4,0.7,6.9-3.5,8.8c-4.4,2-7.1,0.4-9.2-3.6c-1.5-2.8-3.5-5.4-5-8.2c-2-3.8-5-4.3-8.6-3.2c-3.6,1.1-7.3,2.2-7,7.4
		c0.2,3.8-0.2,7.6-0.2,11.3c0,3.8-2.1,5.4-5.6,5.8c-3.5,0.4-6.4-0.1-7.5-4.2c-0.8-3.1-2.2-6.1-2.7-9.2c-0.9-5-3.5-6.7-8.6-6.8
		c-5.3-0.1-7.5,2.3-8.5,7c-0.6,2.8-1.8,5.4-2.4,8.2c-0.9,4.5-3.8,5.6-7.9,5.1c-4.4-0.5-5.6-3.2-5.5-7.1c0.1-2.8-0.4-5.7-0.2-8.5
		c0.5-5.4-2.3-7.8-7.2-9.1c-4.9-1.3-7.4,0.9-9.4,4.9c-1.3,2.5-3.1,4.7-4.4,7.2c-2.1,4.1-5.1,4.5-9,2.9c-4-1.7-4.6-4.5-3.4-8.3
		c0.8-2.7,1-5.6,2-8.3c2-5.5-0.5-8.5-5.1-10.8c-3.1-1.5-5.5-1.7-8.1,1c-2.9,3-5.8,6.2-9.3,8.2c-1.8,1.1-5.6,0.8-7.3-0.4
		c-1.7-1.3-3-4.9-2.5-6.9c1.1-3.9,3.4-7.6,5.6-11.1c2.3-3.8,0.7-6.4-1.9-9c-2.7-2.6-5.3-4.9-9.4-2.3c-3.2,2-6.6,3.6-10,5.4
		c-3.2,1.8-5.7,1.2-7.9-1.7c-2.2-2.8-3.3-5.5-0.3-8.5c2.6-2.7,4.9-5.8,7.7-8.3c3.6-3.1,2.7-6.1,0.7-9.5c-2.1-3.6-4.3-6.1-9-4.3
		c-2.8,1.1-5.9,1.3-8.8,2c-3.7,0.9-7,1.2-8.9-3.3c-1.9-4.4-0.5-7.1,3.4-9.3c3-1.6,5.7-3.7,8.7-5.3c3.5-2,3.9-4.7,2.7-8.2
		c-1.1-3.4-1.7-7.1-6.7-7c-4,0.1-7.9-0.3-11.9-0.3c-3.7,0-5.4-2-5.8-5.5c-0.4-3.5-0.2-6.4,4-7.5c3.3-0.8,6.5-2.2,9.8-2.9
		c4.6-1,6.5-3.6,6.5-8.4c0-4.7-1.5-7.5-6.4-8.3c-3-0.5-5.7-1.9-8.7-2.6c-4.3-1-5.8-3.4-5.2-7.8c0.6-4.4,3-5.7,7-5.5
		c2.6,0.1,5.3-0.4,7.9-0.2c5.1,0.5,8-1.3,9.5-6.5c1.5-5.1-0.3-7.8-4.6-10c-2.5-1.3-4.7-3.1-7.2-4.5c-3.9-2.1-4.8-4.8-3-8.9
		c1.7-4,4.3-4.8,8.2-3.7c2.7,0.8,5.6,1.1,8.3,2c5.4,1.9,8.4-0.1,10.9-4.9c1.7-3.4,1.6-5.9-1.1-8.6c-2.8-2.8-5.4-5.8-8.1-8.7
		c-2.5-2.6-1.9-5,0.1-7.6c2-2.7,4.2-4.4,7.7-2.6c3.5,1.9,7.1,3.5,10.5,5.6c3.9,2.4,6.6,0.9,9.4-2c2.8-2.8,4.4-5.5,2-9.4
		c-2-3.2-3.5-6.7-5.4-10c-1.8-3.2-0.9-5.7,1.9-7.9c2.9-2.2,5.7-2.8,8.6,0c2.8,2.8,5.9,5.3,8.6,8.2c2.9,3.1,5.7,2,8.6,0.3
		c3-1.7,6.1-3.3,4.9-7.8c-1-4-1.8-8.1-2.8-12.2c-0.9-3.7,0.8-5.7,4-7c3.2-1.4,5.9-1.4,7.9,1.8c2.1,3.3,4.4,6.6,6.3,10.1
		c2.1,3.8,5.1,3.9,8.7,2.9c3.6-1,6.9-2.1,6.7-6.9c-0.1-3.6,0.4-7.2,0.3-10.8c-0.1-4.2,1.7-6.2,5.9-6.8c4.1-0.5,6.4,1.1,7.5,5
		c0.9,3.5,2.2,6.8,3.1,10.3c1,4.2,3.9,5,7.7,5c3.9,0,7.1-0.6,8.2-5.1c0.9-3.7,2.3-7.2,3.2-10.9c1-4.1,3.7-4.8,7.3-4.3
		c3.7,0.5,5.9,2.2,5.8,6.2c0,3.6,0.4,7.2,0.2,10.8c-0.2,4.2,1.8,6.2,5.7,7.1c3.8,0.9,7.4,1.9,9.8-2.7c1.9-3.5,4.2-6.7,6.3-10.1
		c2.1-3.3,4.8-3,7.9-1.7c3.2,1.3,5,3.3,4,7c-0.9,3.7-1.5,7.4-2.6,11c-1.6,4.8,1.2,6.9,4.6,9c3.6,2.2,6.5,2.2,9.5-1.2
		c2.2-2.6,5-4.7,7.4-7c2.7-2.6,5.4-3.1,8.6-0.7c3.2,2.4,4.2,5.1,2.2,8.8c-1.7,3-2.9,6.2-4.8,9c-2.7,4-1.4,6.9,1.6,10
		c3.1,3.1,6,4.2,10,1.6c2.8-1.9,6-3.2,9-4.9c3.7-2.1,6.3-1,8.8,2.2c2.4,3.2,2,5.8-0.8,8.5c-2.3,2.2-4.3,4.8-6.6,7
		c-3.2,3-4,5.9-1.5,10c2.4,3.8,4.8,6.1,9.6,4.5c3.2-1.1,6.6-1.6,9.9-2.4c3.7-0.9,6.1,0.2,7.5,4c1.3,3.5,1.1,6.2-2.4,8.2
		c-3.3,1.9-6.3,4.2-9.6,6c-4.2,2.3-3.7,5.6-2.7,9.3c1,3.8,2.6,6.6,7.3,6.3c3.4-0.2,6.8,0.3,10.2,0.2
		C710,176.7,711.3,180,711.6,185.9z M570.9,303.9c56.9,0.1,103-45.8,103-102.7c0-56.5-46.1-102.7-102.5-102.8
		c-56.6-0.1-102.8,45.9-103,102.3C468.3,257.7,514,303.8,570.9,303.9z"/>
	<path class="st0" d="M367.5,338.7c-0.1-13.8,11.4-25.4,25.2-25.5c13.7-0.1,25.4,11.5,25.4,25.3c0.1,13.9-11.3,25.3-25.2,25.4
		C379,363.9,367.6,352.6,367.5,338.7z"/>
	<path class="st0" d="M570.9,303.9c-56.9-0.1-102.6-46.2-102.5-103.3c0.1-56.4,46.4-102.4,103-102.3
		c56.4,0.1,102.5,46.3,102.5,102.8C673.9,258.1,627.8,304,570.9,303.9z M570.8,300.6c54.9,0.2,99.5-44,99.8-98.8
		c0.3-54.9-44-99.9-98.5-100.1c-55-0.3-100,43.8-100.3,98.3C471.5,255.9,515.3,300.4,570.8,300.6z"/>
	<path class="st1" d="M570.8,300.6c-55.5-0.2-99.3-44.7-99-100.6c0.3-54.5,45.3-98.6,100.3-98.3c54.5,0.3,98.8,45.3,98.5,100.1
		C670.3,256.6,625.7,300.8,570.8,300.6z M596.4,201.4c0.1-13.8-11.3-25.4-25.1-25.6c-13.7-0.2-25.3,11.3-25.4,25.2
		c-0.1,13.9,11.1,25.3,25.1,25.4C585,226.5,596.3,215.3,596.4,201.4z"/>
	<path class="st0" d="M596.4,201.4c-0.1,14-11.5,25.1-25.4,25.1c-14-0.1-25.2-11.4-25.1-25.4c0.1-13.9,11.7-25.4,25.4-25.2
		C585.2,176,596.5,187.5,596.4,201.4z"/>
</g>
</svg>
