<?xml version="1.0" encoding="utf-8"?>
<!-- Generator: Adobe Illustrator 24.1.2, SVG Export Plug-In . SVG Version: 6.00 Build 0)  -->
<svg version="1.1" id="blobSvg" xmlns="http://www.w3.org/2000/svg" xmlns:xlink="http://www.w3.org/1999/xlink" x="0px" y="0px"
	 viewBox="0 0 972 500" style="enable-background:new 0 0 972 500;" xml:space="preserve">
<style type="text/css">
	.st0{fill:#FFFFFF;}
	.st1{fill:#F89920;}
</style>
<g>
	<path class="st0" d="M658.5,262.1c0-43,0.1-86-0.2-129c0-3.9-1.6-8.4-3.7-11.7c-3.4-5.2-9.3-6.2-15.3-6.2
		c-25.8,0.1-51.5,0-77.3,0.1c-4,0-5.4-1.2-5.2-5.2c0.3-6.9,0.1-13.9,0.1-20.8c-0.1-12.5-6.6-19.2-19.1-19.2
		c-50.8,0-101.7,0-152.5-0.1c-4.1,0-7,1.2-9.9,4.1c-17,17.2-34.1,34.4-51.4,51.3c-3.2,3.1-4.4,6.3-4.4,10.7c0.1,73,0.1,146,0.1,219
		c0,13.1,6.5,19.6,19.7,19.6c26.3,0,52.5,0,78.8,0c4.5,0,10.9-1.3,13.1,1.1c2.5,2.7,1.2,8.8,1.6,13.5c0,0.2,0,0.3,0,0.5
		c0.3,12.1,7,18.8,19,18.8c62.7,0,125.4,0,188.1,0c11.9,0,18.5-6.7,18.5-18.6C658.5,347.5,658.5,304.8,658.5,262.1z"/>
	<path class="st1" d="M658.5,262.1c0,42.7,0,85.3,0,128c0,11.8-6.7,18.5-18.5,18.6c-62.7,0-125.4,0-188.1,0c-12,0-18.7-6.7-19-18.8
		c0-0.2,0-0.3,0-0.5c-0.4-4.6,0.9-10.8-1.6-13.5c-2.2-2.4-8.6-1.1-13.1-1.1c-26.3-0.1-52.5,0-78.8,0c-13.2,0-19.7-6.5-19.7-19.6
		c0-73,0-146-0.1-219c0-4.4,1.2-7.6,4.4-10.7c17.3-17,34.4-34.1,51.4-51.3c2.8-2.9,5.8-4.1,9.9-4.1c50.8,0.1,101.7,0.1,152.5,0.1
		c12.5,0,19,6.7,19.1,19.2c0,6.9,0.2,13.9-0.1,20.8c-0.1,4,1.2,5.3,5.2,5.2c25.8-0.1,51.5,0,77.3-0.1c6.1,0,11.9,0.9,15.3,6.2
		c2.2,3.3,3.7,7.7,3.7,11.7C658.6,176.1,658.5,219.1,658.5,262.1z M545,272.3c0.3-2.5,0.5-3.5,0.5-4.4c0-59.6,0-119.2,0-178.8
		c0-6-1.6-7.5-7.7-7.5c-48.5,0-96.9,0-145.4-0.1c-3.8,0-5,1.3-4.9,5c0.2,11,0.1,22,0,33c-0.1,11.4-7.1,18.2-18.5,18.3
		c-10.3,0.1-20.7,0-31,0c-6.9,0-6.9,0-6.9,7c0,69.4,0,138.9,0,208.3c0,9.6,0.7,10.3,10.5,10.3c64.4,0,128.8,0,193.2,0
		c1.2,0,2.4,0,3.6,0c5.5-0.2,7-1.6,7.1-7c0.1-3.7,0-7.5,0-11.2c0-4.4,0-8.9,0-13.3c-0.5-0.1-1-0.3-1.5-0.4c-2.5,1.9-5,3.8-7.5,5.8
		c-3.8,3-7.8,4.7-12.7,2.4c-4.5-2.1-6.6-5.9-6.3-10.6c0.2-4.3-1.8-5-5.5-5c-16.3,0.1-32.5,0.1-48.8,0c-9.4,0-13.5-4.1-13.6-13.7
		c0-5.8,0-11.5,0-17.3c0.1-10.5,3.9-14.2,14.6-14.3c15.9,0,31.9-0.1,47.8,0c3.7,0,5.8-0.8,5.5-5.1c-0.3-4.8,1.9-8.6,6.5-10.5
		c4.5-1.9,8.6-0.8,12.3,2.3C538.9,267.6,541.5,269.6,545,272.3z M557.5,222.2c1.7,0.1,3,0.2,4.3,0.2c3.8,0.1,6.4,1.8,6.5,5.6
		c0.1,3.6-2.6,5.8-5.9,5.6c-5.3-0.4-5.9,2.4-5.5,6.5c0.1,1.5,0.2,3.1,0,4.6c-0.6,4.6,1.1,6.2,5.9,6.1c17.1-0.3,34.2-0.1,51.3-0.1
		c1.7,0,3.4,0,5.1,0.1c3.3,0.2,5.5,1.8,5.6,5.3c0.1,3.5-2,5.2-5.4,5.5c-1.7,0.1-3.4,0.1-5.1,0.1c-17.5,0-34.9,0.1-52.4-0.1
		c-3.7,0-4.7,1.1-5.2,4.8c-1.3,10.9,1.2,19.5,11.5,24.9c0.6,0.3,1.1,0.8,1.6,1.3c5.5,5.2,5.5,12.2-0.1,17.4c-3,2.7-6.6,4.9-9.3,7.8
		c-1.7,1.9-3.3,4.7-3.3,7.2c-0.4,9.6-0.1,19.3-0.2,29c0,14.5-6.2,20.6-20.8,20.6c-29,0-58,0.1-86.9-0.1c-3.9,0-5.7,1.1-5.2,5.2
		c0.3,2.9,0.1,5.8,0.1,8.6c0.1,7.2,1.6,8.7,8.7,8.7c62,0,124,0,186.1,0c7.2,0,8.6-1.4,8.6-8.7c0-84.4,0-168.7,0-253.1
		c0-7.4-1.6-9.1-8.9-9.1c-25.4,0-50.8,0.1-76.3-0.1c-4.3,0-5.5,1.4-5.5,5.5c0.2,19,0.2,37.9,0,56.9c0,4.2,1.3,5.5,5.5,5.5
		c17.6-0.2,35.2-0.1,52.9-0.1c2,0,4.3-0.2,5.9,0.8c1.6,1,3.4,3.2,3.4,4.9c0,1.7-1.7,3.9-3.3,5c-1.1,0.9-3.2,0.6-4.9,0.6
		c-15.3,0-30.5,0-45.8,0c-14.7,0-14.7,0-13.6,14.8C557,220.8,557.2,221.3,557.5,222.2z M528.8,327.2c0.5,0.2,1,0.5,1.5,0.7
		c10.5-8.7,21.1-17.4,32-26.5c-11.5-9.4-22.1-18.1-34-27.7c0,3.4,0,5,0,6.6c0.2,8.9-0.7,9.8-9.8,9.8c-14.2,0-28.5,0-42.7,0
		c-4.7,0-11.3-1.4-13.6,1.1c-2.5,2.8-1.3,9.2-1.4,14c-0.1,7.3,0,7.3,7.1,7.3c17.5,0,34.9,0,52.4,0c6.4,0,8.1,1.9,8.2,8.2
		C528.6,323,528.7,325.1,528.8,327.2z M375.9,91.8c-0.7-0.6-1.5-1.2-2.2-1.8c-11.3,11.4-22.6,22.7-33.8,34.1
		c0.5,0.7,1.1,1.5,1.6,2.2c9.9,0,19.8,0.2,29.7-0.2c1.6-0.1,4.4-2.8,4.5-4.4C376.1,111.7,375.9,101.7,375.9,91.8z"/>
	<path class="st0" d="M545,272.3c-3.5-2.7-6.1-4.6-8.7-6.8c-3.7-3.1-7.8-4.2-12.3-2.3c-4.5,1.9-6.7,5.7-6.5,10.5
		c0.2,4.3-1.9,5.1-5.5,5.1c-15.9-0.1-31.9-0.1-47.8,0c-10.7,0-14.5,3.8-14.6,14.3c0,5.8,0,11.5,0,17.3c0.1,9.5,4.1,13.6,13.6,13.7
		c16.3,0,32.5,0.1,48.8,0c3.7,0,5.7,0.7,5.5,5c-0.3,4.8,1.8,8.5,6.3,10.6c4.9,2.3,8.9,0.6,12.7-2.4c2.5-1.9,5-3.9,7.5-5.8
		c0.5,0.1,1,0.3,1.5,0.4c0,4.4,0,8.9,0,13.3c0,3.7,0.1,7.5,0,11.2c-0.2,5.4-1.7,6.8-7.1,7c-1.2,0-2.4,0-3.6,0
		c-64.4,0-128.8,0-193.2,0c-9.8,0-10.5-0.7-10.5-10.3c0-69.4,0-138.9,0-208.3c0-6.9,0-6.9,6.9-7c10.3,0,20.7,0,31,0
		c11.4-0.1,18.4-7,18.5-18.3c0.1-11,0.1-22,0-33c-0.1-3.7,1.1-5,4.9-5c48.5,0.1,96.9,0.1,145.4,0.1c6.1,0,7.7,1.5,7.7,7.5
		c0,59.6,0,119.2,0,178.8C545.5,268.8,545.3,269.8,545,272.3z M438.1,171.7c9.8,0,19.6,0,29.5,0c16.1,0,32.2,0,48.2,0
		c3.9,0,7-1.4,7-5.6c0.1-4.2-3.2-5.6-6.9-5.8c-0.8-0.1-1.7,0-2.5,0c-50.1,0-100.2,0-150.3,0c-1.7,0-3.8-0.3-4.9,0.5
		c-1.8,1.4-4.4,3.8-4.1,5.4c0.3,2,2.9,3.9,4.9,5.3c1.1,0.7,3,0.2,4.5,0.2C388.3,171.7,413.2,171.7,438.1,171.7z M466.6,228
		c5.4,0,10.8,0,16.3,0c10.8,0,21.7,0,32.5,0c3.9,0,7.5-1,7.4-5.6c0-4.6-3.7-5.5-7.6-5.5c-0.7,0-1.4,0-2,0c-31.1,0-62.3,0-93.4,0
		c-1.7,0-3.8-0.5-5,0.4c-1.9,1.3-4.3,3.5-4.3,5.2c0,1.8,2.5,3.9,4.4,5.1c1.2,0.8,3.3,0.3,5,0.3C435.5,228,451,228,466.6,228z
		 M410,188.6c-15.4,0-30.8,0-46.2,0c-7.1,0-10.1,1.7-10.1,5.6c0,4,3.1,5.8,10.1,5.8c30.8,0,61.7,0,92.5,0c2,0,4.4,0.3,5.9-0.6
		c1.8-1.1,4-3.5,3.8-5.1c-0.2-2-2.5-4-4.3-5.4c-1-0.8-2.9-0.3-4.5-0.3C441.5,188.6,425.8,188.6,410,188.6z M503.3,188.6
		c-4.4,0-8.8,0-13.2,0c-3.7,0-6.3,1.6-6.4,5.6c-0.1,3.8,2.4,5.6,5.8,5.7c9.1,0.2,18.2,0.2,27.3,0c3.3-0.1,6.1-1.8,6-5.6
		c-0.1-3.8-2.7-5.6-6.4-5.6C512.1,188.6,507.7,188.6,503.3,188.6z M373.4,227.9c4.6,0,9.1,0.1,13.7,0c3.6-0.1,5.8-1.9,5.7-5.7
		c-0.1-3.5-2.3-5.2-5.6-5.2c-9.1-0.1-18.3-0.1-27.4,0c-3.5,0-6,1.7-6,5.4c0,3.7,2.4,5.4,5.9,5.5C364.2,228,368.8,227.9,373.4,227.9z
		"/>
	<path class="st0" d="M557.5,222.2c-0.3-1-0.5-1.5-0.5-1.9c-1.1-14.8-1.1-14.8,13.6-14.8c15.3,0,30.5,0,45.8,0
		c1.7,0,3.8,0.2,4.9-0.6c1.6-1.2,3.3-3.3,3.3-5c0-1.7-1.8-3.9-3.4-4.9c-1.6-0.9-3.9-0.8-5.9-0.8c-17.6-0.1-35.2-0.1-52.9,0.1
		c-4.2,0-5.5-1.2-5.5-5.5c0.2-19,0.2-37.9,0-56.9c0-4.2,1.2-5.6,5.5-5.5c25.4,0.2,50.8,0.1,76.3,0.1c7.3,0,8.9,1.7,8.9,9.1
		c0,84.4,0,168.7,0,253.1c0,7.3-1.4,8.7-8.6,8.7c-62,0-124,0-186.1,0c-7.1,0-8.6-1.5-8.7-8.7c-0.1-2.9,0.2-5.8-0.1-8.6
		c-0.4-4.1,1.3-5.2,5.2-5.2c29,0.1,58,0.1,86.9,0.1c14.6,0,20.8-6.1,20.8-20.6c0-9.7-0.2-19.3,0.2-29c0.1-2.5,1.6-5.3,3.3-7.2
		c2.7-3,6.3-5.1,9.3-7.8c5.6-5.1,5.5-12.1,0.1-17.4c-0.5-0.5-1-1-1.6-1.3c-10.3-5.4-12.8-14-11.5-24.9c0.5-3.7,1.5-4.9,5.2-4.8
		c17.5,0.1,34.9,0.1,52.4,0.1c1.7,0,3.4,0,5.1-0.1c3.3-0.3,5.4-2,5.4-5.5c-0.1-3.5-2.3-5.1-5.6-5.3c-1.7-0.1-3.4-0.1-5.1-0.1
		c-17.1,0-34.2-0.2-51.3,0.1c-4.8,0.1-6.5-1.6-5.9-6.1c0.2-1.5,0.1-3.1,0-4.6c-0.4-4.1,0.2-6.8,5.5-6.5c3.3,0.2,6-2,5.9-5.6
		c-0.1-3.8-2.8-5.6-6.5-5.6C560.4,222.4,559.1,222.3,557.5,222.2z M605.4,222.5c-4.6,0-9.1-0.1-13.7,0c-3.5,0.1-5.9,1.6-6.1,5.3
		c-0.2,3.8,2.3,5.8,5.6,5.9c9.3,0.2,18.6,0.3,27.8,0c3.3-0.1,5.9-2,5.6-5.8c-0.2-3.7-2.7-5.3-6.1-5.3
		C614.2,222.4,609.8,222.5,605.4,222.5z"/>
	<path class="st0" d="M528.8,327.2c-0.1-2.1-0.2-4.3-0.3-6.4c-0.1-6.4-1.8-8.2-8.2-8.2c-17.5-0.1-34.9,0-52.4,0
		c-7.2,0-7.3,0-7.1-7.3c0.1-4.8-1.1-11.2,1.4-14c2.2-2.5,8.9-1.1,13.6-1.1c14.2-0.1,28.5,0,42.7,0c9.1,0,10-1,9.8-9.8
		c0-1.6,0-3.2,0-6.6c11.8,9.7,22.5,18.3,34,27.7c-11,9.1-21.5,17.8-32,26.5C529.8,327.7,529.3,327.5,528.8,327.2z"/>
	<path class="st0" d="M375.9,91.8c0,9.9,0.2,19.9-0.2,29.8c-0.1,1.6-2.8,4.4-4.5,4.4c-9.9,0.4-19.8,0.2-29.7,0.2
		c-0.5-0.7-1.1-1.5-1.6-2.2c11.3-11.4,22.6-22.7,33.8-34.1C374.4,90.6,375.2,91.2,375.9,91.8z"/>
	<path class="st1" d="M438.1,171.7c-24.9,0-49.8,0-74.6,0c-1.5,0-3.4,0.5-4.5-0.2c-2-1.4-4.6-3.3-4.9-5.3c-0.3-1.6,2.3-4,4.1-5.4
		c1.1-0.9,3.3-0.5,4.9-0.5c50.1,0,100.2,0,150.3,0c0.8,0,1.7,0,2.5,0c3.7,0.2,7,1.6,6.9,5.8c-0.1,4.2-3.2,5.6-7,5.6
		c-16.1,0-32.2,0-48.2,0C457.7,171.7,447.9,171.7,438.1,171.7z"/>
	<path class="st1" d="M466.6,228c-15.6,0-31.1,0-46.7,0c-1.7,0-3.8,0.5-5-0.3c-1.9-1.2-4.4-3.4-4.4-5.1c0-1.8,2.4-4,4.3-5.2
		c1.2-0.8,3.3-0.4,5-0.4c31.1,0,62.3,0,93.4,0c0.7,0,1.4,0,2,0c3.9-0.1,7.5,0.8,7.6,5.5c0,4.6-3.5,5.6-7.4,5.6
		c-10.8,0-21.7,0-32.5,0C477.5,228,472,228,466.6,228z"/>
	<path class="st1" d="M410,188.6c15.8,0,31.5,0,47.3,0c1.5,0,3.5-0.5,4.5,0.3c1.8,1.4,4.1,3.4,4.3,5.4c0.2,1.6-2.1,4-3.8,5.1
		c-1.6,0.9-3.9,0.6-5.9,0.6c-30.8,0-61.7,0-92.5,0c-7,0-10.1-1.8-10.1-5.8c0-3.9,3-5.6,10.1-5.6C379.2,188.6,394.6,188.6,410,188.6z
		"/>
	<path class="st1" d="M503.3,188.6c4.4,0,8.8,0,13.2,0c3.7,0,6.3,1.8,6.4,5.6c0.1,3.7-2.7,5.5-6,5.6c-9.1,0.2-18.2,0.2-27.3,0
		c-3.4-0.1-5.9-1.9-5.8-5.7c0.1-4,2.7-5.6,6.4-5.6C494.5,188.6,498.9,188.6,503.3,188.6z"/>
	<path class="st1" d="M373.4,227.9c-4.6,0-9.1,0.1-13.7,0c-3.5-0.1-6-1.8-5.9-5.5c0-3.7,2.6-5.4,6-5.4c9.1-0.1,18.3-0.1,27.4,0
		c3.3,0,5.5,1.7,5.6,5.2c0.1,3.8-2.2,5.6-5.7,5.7C382.5,228,378,227.9,373.4,227.9z"/>
	<path class="st1" d="M605.4,222.5c4.4,0,8.8-0.1,13.2,0c3.5,0.1,5.9,1.7,6.1,5.3c0.2,3.8-2.4,5.7-5.6,5.8c-9.3,0.3-18.5,0.3-27.8,0
		c-3.3-0.1-5.8-2.1-5.6-5.9c0.2-3.7,2.6-5.3,6.1-5.3C596.3,222.4,600.8,222.5,605.4,222.5z"/>
</g>
</svg>
