<svg xmlns="http://www.w3.org/2000/svg" xmlns:xlink="http://www.w3.org/1999/xlink" xmlns:lucid="lucid" width="635.59" height="989.66"><g transform="translate(-240 -206.84210526315786)" lucid:page-tab-id="0_0"><path d="M0 0h1760v1360H0z" fill="#fff"/><path d="M560 240h295.6v272.58H560z" stroke="#000" stroke-width="2" fill="#fff" fill-opacity=".05"/><path d="M591.7 252.84h240v60h-240z" fill="none"/><use xlink:href="#a" transform="matrix(1,0,0,1,591.7033896180467,252.84210526316707) translate(67.7777777777778 36.266666666666666)"/><path d="M281.9 447.1h184.4V560H281.9z" stroke="#000" stroke-width="2" fill="#ffeca9"/><use xlink:href="#b" transform="matrix(1,0,0,1,286.89830508474574,452.1052631578947) translate(25.6 44.3)"/><use xlink:href="#c" transform="matrix(1,0,0,1,286.89830508474574,452.1052631578947) translate(61.4 65.9)"/><path d="M260 226.84h184.4v146.84c-30.8-24.52-49.97-24.52-61.6-24.52-18.43 0-42.95 24.52-61.4 24.52-11.43 0-30.8 0-61.4-24.52z" stroke="#000" stroke-width="2" fill="#c7e8ac"/><use xlink:href="#d" transform="matrix(1,0,0,1,265,231.84210526315786) translate(46.55 60.1)"/><path d="M281.9 248.87h184.4V395.7c-30.8-24.5-49.97-24.5-61.6-24.5-18.43 0-42.95 24.5-61.4 24.5-11.43 0-30.8 0-61.4-24.5z" stroke="#000" stroke-width="2" fill="#c7e8ac"/><use xlink:href="#e" transform="matrix(1,0,0,1,286.89830508474574,253.86842105263156) translate(54.025 38.5)"/><use xlink:href="#f" transform="matrix(1,0,0,1,286.89830508474574,253.86842105263156) translate(0.625 60.1)"/><use xlink:href="#g" transform="matrix(1,0,0,1,286.89830508474574,253.86842105263156) translate(116.42500000000001 60.1)"/><use xlink:href="#h" transform="matrix(1,0,0,1,286.89830508474574,253.86842105263156) translate(144.375 60.1)"/><use xlink:href="#i" transform="matrix(1,0,0,1,286.89830508474574,253.86842105263156) translate(39.574999999999996 81.70000000000002)"/><use xlink:href="#j" transform="matrix(1,0,0,1,286.89830508474574,253.86842105263156) translate(67.525 81.70000000000002)"/><path d="M374.1 385.35v42.25" stroke="#000" stroke-width="2" fill="none"/><path d="M375.1 385.37h-2v-.5l2-1.06z"/><path d="M374.1 442.87l-4.63-14.27h9.27z" stroke="#000" stroke-width="2"/><path d="M374.1 562v29.9" stroke="#000" stroke-width="2" fill="none"/><path d="M375.1 562.03h-2V561h2z"/><path d="M374.1 607.16l-4.63-14.27h9.27z" stroke="#000" stroke-width="2"/><path d="M281.9 611.4h184.4v64.86H281.9z" stroke="#000" stroke-width="2" fill="#ffeca9"/><use xlink:href="#k" transform="matrix(1,0,0,1,286.89830508474574,616.3947368421052) translate(52.525 31.1)"/><path d="M281.9 740h184.4v96.84H281.9z" stroke="#000" stroke-width="2" fill="#ffeca9"/><use xlink:href="#l" transform="matrix(1,0,0,1,286.89830517068606,745) translate(0.125 36.3)"/><use xlink:href="#m" transform="matrix(1,0,0,1,286.89830517068606,745) translate(124.92500000000001 36.3)"/><use xlink:href="#n" transform="matrix(1,0,0,1,286.89830517068606,745) translate(155.875 36.3)"/><use xlink:href="#o" transform="matrix(1,0,0,1,286.89830517068606,745) translate(68.05 57.9)"/><path d="M695.95 587.32l64.25 56.5-64.25 56.52-64.25-56.5z" stroke="#000" stroke-width="2" fill="#c1e4f7"/><use xlink:href="#p" transform="matrix(1,0,0,1,636.7033896180468,592.3223684210525) translate(22.525 44.8)"/><use xlink:href="#q" transform="matrix(1,0,0,1,636.7033896180468,592.3223684210525) translate(69.525 44.8)"/><use xlink:href="#r" transform="matrix(1,0,0,1,636.7033896180468,592.3223684210525) translate(30.574999999999996 66.4)"/><path d="M281.9 900.58h184.4v110.13H281.9z" stroke="#000" stroke-width="2" fill="#ffeca9"/><use xlink:href="#s" transform="matrix(1,0,0,1,286.89830508474574,905.5789473684212) translate(5.650000000000006 54.1)"/><path d="M374.1 838.84v42.25" stroke="#000" stroke-width="2" fill="none"/><path d="M375.1 838.87h-2v-1.03h2z"/><path d="M374.1 896.34l-4.63-14.26h9.27z" stroke="#000" stroke-width="2"/><path d="M281.9 1060h184.4v110.13H281.9z" stroke="#000" stroke-width="2" fill="#ffeca9"/><use xlink:href="#t" transform="matrix(1,0,0,1,286.89830517068606,1065) translate(30.525 54.1)"/><path d="M374.1 1012.7v27.8" stroke="#000" stroke-width="2" fill="none"/><path d="M375.1 1012.74h-2v-1.03h2z"/><path d="M374.1 1055.76l-4.63-14.26h9.27z" stroke="#000" stroke-width="2"/><path d="M468.3 643.83h143.4" stroke="#000" stroke-width="2" fill="none"/><path d="M468.33 644.83h-1.02v-2h1.03z"/><path d="M626.95 643.83l-14.26 4.63v-9.27z" stroke="#000" stroke-width="2"/><path d="M374.1 678.26v42.24" stroke="#000" stroke-width="2" fill="none"/><path d="M375.1 678.3h-2v-1.04h2z"/><path d="M374.1 735.76l-4.63-14.26h9.27z" stroke="#000" stroke-width="2"/><path d="M468.3 788.42h143.4" stroke="#000" stroke-width="2" fill="none"/><path d="M468.33 789.42h-1.02v-2h1.03z"/><path d="M626.95 788.42l-14.26 4.64v-9.27z" stroke="#000" stroke-width="2"/><path d="M468.3 952.93H579.98M468.33 952.93h-1.02" stroke="#000" stroke-width="2" fill="none"/><path d="M595.24 952.93l-14.27 4.63v-9.27z" stroke="#000" stroke-width="2"/><path d="M692.2 872.93l92.2 80-92.2 80-92.2-80z" stroke="#000" stroke-width="2" fill="#c1e4f7"/><use xlink:href="#u" transform="matrix(1,0,0,1,605,877.9276315789473) translate(14.625 67.8)"/><use xlink:href="#v" transform="matrix(1,0,0,1,605,877.9276315789473) translate(36.575 89.4)"/><use xlink:href="#w" transform="matrix(1,0,0,1,605,877.9276315789473) translate(99.475 89.4)"/><path d="M467.3 1120h144.4M467.33 1120h-1.02" stroke="#000" stroke-width="2" fill="none"/><path d="M626.95 1120l-14.26 4.64v-9.28z" stroke="#000" stroke-width="2"/><path d="M591.7 312.84h80v40h-80z" stroke="#000" stroke-width="2" fill="#c7e8ac"/><g><use xlink:href="#x" transform="matrix(1,0,0,1,596.7033896180467,317.84210526316707) translate(10.5 18.6)"/></g><path d="M591.7 428.3h80v53.2h-80z" stroke="#000" stroke-width="2" fill="#c1e4f7"/><g><use xlink:href="#y" transform="matrix(1,0,0,1,596.7033896180467,433.28947368421973) translate(15.574999999999996 14.799999999999999)"/><use xlink:href="#z" transform="matrix(1,0,0,1,596.7033896180467,433.28947368421973) translate(8 36.4)"/></g><path d="M591.7 372.58h80v40h-80z" stroke="#000" stroke-width="2" fill="#ffeca9"/><g><use xlink:href="#A" transform="matrix(1,0,0,1,596.7033896180467,377.57894736843025) translate(12.024999999999999 18.6)"/></g><path d="M695.95 731.9l64.25 56.52-64.25 56.5-64.25-56.5z" stroke="#000" stroke-width="2" fill="#c1e4f7"/><g><use xlink:href="#B" transform="matrix(1,0,0,1,636.7033896180468,736.9144736842104) translate(38.5 55.6)"/></g><path d="M695.95 1063.5l64.25 56.5-64.25 56.5-64.25-56.5z" stroke="#000" stroke-width="2" fill="#c1e4f7"/><g><use xlink:href="#p" transform="matrix(1,0,0,1,636.7033896180468,1068.4934210526314) translate(13.024999999999999 55.6)"/><use xlink:href="#C" transform="matrix(1,0,0,1,636.7033896180468,1068.4934210526314) translate(60.025 55.6)"/></g><defs><path d="M30 0v-248h33v221h125V0H30" id="D"/><path d="M100-194c63 0 86 42 84 106H49c0 40 14 67 53 68 26 1 43-12 49-29l28 8c-11 28-37 45-77 45C44 4 14-33 15-96c1-61 26-98 85-98zm52 81c6-60-76-77-97-28-3 7-6 17-6 28h103" id="E"/><path d="M177-190C167-65 218 103 67 71c-23-6-38-20-44-43l32-5c15 47 100 32 89-28v-30C133-14 115 1 83 1 29 1 15-40 15-95c0-56 16-97 71-98 29-1 48 16 59 35 1-10 0-23 2-32h30zM94-22c36 0 50-32 50-73 0-42-14-75-50-75-39 0-46 34-46 75s6 73 46 73" id="F"/><path d="M117-194c89-4 53 116 60 194h-32v-121c0-31-8-49-39-48C34-167 62-67 57 0H25l-1-190h30c1 10-1 24 2 32 11-22 29-35 61-36" id="G"/><path d="M85-194c31 0 48 13 60 33l-1-100h32l1 261h-30c-2-10 0-23-3-31C134-8 116 4 85 4 32 4 16-35 15-94c0-66 23-100 70-100zm9 24c-40 0-46 34-46 75 0 40 6 74 45 74 42 0 51-32 51-76 0-42-9-74-50-73" id="H"/><g id="a"><use transform="matrix(0.08703703703703701,0,0,0.08703703703703701,0,0)" xlink:href="#D"/><use transform="matrix(0.08703703703703701,0,0,0.08703703703703701,17.4074074074074,0)" xlink:href="#E"/><use transform="matrix(0.08703703703703701,0,0,0.08703703703703701,34.8148148148148,0)" xlink:href="#F"/><use transform="matrix(0.08703703703703701,0,0,0.08703703703703701,52.22222222222219,0)" xlink:href="#E"/><use transform="matrix(0.08703703703703701,0,0,0.08703703703703701,69.6296296296296,0)" xlink:href="#G"/><use transform="matrix(0.08703703703703701,0,0,0.08703703703703701,87.03703703703701,0)" xlink:href="#H"/><path d="M-1.57 2.17H106v2.3H-1.56z"/></g><path d="M205 0l-28-72H64L36 0H1l101-248h38L239 0h-34zm-38-99l-47-123c-12 45-31 82-46 123h93" id="I"/><path d="M24 0v-261h32V0H24" id="J"/><path d="M24-231v-30h32v30H24zM24 0v-190h32V0H24" id="K"/><path d="M30-248c87 1 191-15 191 75 0 78-77 80-158 76V0H30v-248zm33 125c57 0 124 11 124-50 0-59-68-47-124-48v98" id="L"/><path d="M141-36C126-15 110 5 73 4 37 3 15-17 15-53c-1-64 63-63 125-63 3-35-9-54-41-54-24 1-41 7-42 31l-33-3c5-37 33-52 76-52 45 0 72 20 72 64v82c-1 20 7 32 28 27v20c-31 9-61-2-59-35zM48-53c0 20 12 33 32 33 41-3 63-29 60-74-43 2-92-5-92 41" id="M"/><path d="M114-163C36-179 61-72 57 0H25l-1-190h30c1 12-1 29 2 39 6-27 23-49 58-41v29" id="N"/><path d="M30 0v-248h187v28H63v79h144v27H63v87h162V0H30" id="O"/><g id="b"><use transform="matrix(0.05,0,0,0.05,0,0)" xlink:href="#I"/><use transform="matrix(0.05,0,0,0.05,12,0)" xlink:href="#J"/><use transform="matrix(0.05,0,0,0.05,15.949999999999998,0)" xlink:href="#K"/><use transform="matrix(0.05,0,0,0.05,19.9,0)" xlink:href="#F"/><use transform="matrix(0.05,0,0,0.05,29.899999999999995,0)" xlink:href="#G"/><use transform="matrix(0.05,0,0,0.05,39.9,0)" xlink:href="#L"/><use transform="matrix(0.05,0,0,0.05,51.900000000000006,0)" xlink:href="#M"/><use transform="matrix(0.05,0,0,0.05,61.900000000000006,0)" xlink:href="#K"/><use transform="matrix(0.05,0,0,0.05,65.85,0)" xlink:href="#N"/><use transform="matrix(0.05,0,0,0.05,71.8,0)" xlink:href="#E"/><use transform="matrix(0.05,0,0,0.05,81.8,0)" xlink:href="#H"/><use transform="matrix(0.05,0,0,0.05,91.8,0)" xlink:href="#O"/><use transform="matrix(0.05,0,0,0.05,103.80000000000001,0)" xlink:href="#G"/><use transform="matrix(0.05,0,0,0.05,113.80000000000001,0)" xlink:href="#H"/></g><path d="M87 75C49 33 22-17 22-94c0-76 28-126 65-167h31c-38 41-64 92-64 168S80 34 118 75H87" id="P"/><path d="M160-131c35 5 61 23 61 61C221 17 115-2 30 0v-248c76 3 177-17 177 60 0 33-19 50-47 57zm-97-11c50-1 110 9 110-42 0-47-63-36-110-37v79zm0 115c55-2 124 14 124-45 0-56-70-42-124-44v89" id="Q"/><path d="M266 0h-40l-56-210L115 0H75L2-248h35L96-30l15-64 43-154h32l59 218 59-218h35" id="R"/><path d="M33-261c38 41 65 92 65 168S71 34 33 75H2C39 34 66-17 66-93S39-220 2-261h31" id="S"/><g id="c"><use transform="matrix(0.05,0,0,0.05,0,0)" xlink:href="#P"/><use transform="matrix(0.05,0,0,0.05,5.95,0)" xlink:href="#Q"/><use transform="matrix(0.05,0,0,0.05,17.95,0)" xlink:href="#R"/><use transform="matrix(0.05,0,0,0.05,34.25,0)" xlink:href="#I"/><use transform="matrix(0.05,0,0,0.05,46.25,0)" xlink:href="#S"/></g><path d="M30-248c118-7 216 8 213 122C240-48 200 0 122 0H30v-248zM63-27c89 8 146-16 146-99s-60-101-146-95v194" id="T"/><path d="M100-194c62-1 85 37 85 99 1 63-27 99-86 99S16-35 15-95c0-66 28-99 85-99zM99-20c44 1 53-31 53-75 0-43-8-75-51-75s-53 32-53 75 10 74 51 75" id="U"/><path d="M96-169c-40 0-48 33-48 73s9 75 48 75c24 0 41-14 43-38l32 2c-6 37-31 61-74 61-59 0-76-41-82-99-10-93 101-131 147-64 4 7 5 14 7 22l-32 3c-4-21-16-35-41-35" id="V"/><path d="M84 4C-5 8 30-112 23-190h32v120c0 31 7 50 39 49 72-2 45-101 50-169h31l1 190h-30c-1-10 1-25-2-33-11 22-28 36-60 37" id="W"/><path d="M210-169c-67 3-38 105-44 169h-31v-121c0-29-5-50-35-48C34-165 62-65 56 0H25l-1-190h30c1 10-1 24 2 32 10-44 99-50 107 0 11-21 27-35 58-36 85-2 47 119 55 194h-31v-121c0-29-5-49-35-48" id="X"/><path d="M59-47c-2 24 18 29 38 22v24C64 9 27 4 27-40v-127H5v-23h24l9-43h21v43h35v23H59v120" id="Y"/><g id="d"><use transform="matrix(0.05,0,0,0.05,0,0)" xlink:href="#T"/><use transform="matrix(0.05,0,0,0.05,12.950000000000001,0)" xlink:href="#U"/><use transform="matrix(0.05,0,0,0.05,22.950000000000003,0)" xlink:href="#V"/><use transform="matrix(0.05,0,0,0.05,31.950000000000003,0)" xlink:href="#W"/><use transform="matrix(0.05,0,0,0.05,41.95,0)" xlink:href="#X"/><use transform="matrix(0.05,0,0,0.05,56.900000000000006,0)" xlink:href="#E"/><use transform="matrix(0.05,0,0,0.05,66.9,0)" xlink:href="#G"/><use transform="matrix(0.05,0,0,0.05,76.9,0)" xlink:href="#Y"/></g><g id="e"><use transform="matrix(0.05,0,0,0.05,0,0)" xlink:href="#Q"/><use transform="matrix(0.05,0,0,0.05,12,0)" xlink:href="#M"/><use transform="matrix(0.05,0,0,0.05,22,0)" xlink:href="#N"/><use transform="matrix(0.05,0,0,0.05,27.950000000000003,0)" xlink:href="#V"/><use transform="matrix(0.05,0,0,0.05,36.95,0)" xlink:href="#U"/><use transform="matrix(0.05,0,0,0.05,46.95,0)" xlink:href="#H"/><use transform="matrix(0.05,0,0,0.05,56.95,0)" xlink:href="#E"/></g><path d="M115-194c55 1 70 41 70 98S169 2 115 4C84 4 66-9 55-30l1 105H24l-1-265h31l2 30c10-21 28-34 59-34zm-8 174c40 0 45-34 45-75s-6-73-45-74c-42 0-51 32-51 76 0 43 10 73 51 73" id="Z"/><path d="M141 0L90-78 38 0H4l68-98-65-92h35l48 74 47-74h35l-64 92 68 98h-35" id="aa"/><g id="f"><use transform="matrix(0.05,0,0,0.05,0,0)" xlink:href="#H"/><use transform="matrix(0.05,0,0,0.05,10,0)" xlink:href="#E"/><use transform="matrix(0.05,0,0,0.05,20,0)" xlink:href="#X"/><use transform="matrix(0.05,0,0,0.05,34.95,0)" xlink:href="#W"/><use transform="matrix(0.05,0,0,0.05,44.95,0)" xlink:href="#J"/><use transform="matrix(0.05,0,0,0.05,48.900000000000006,0)" xlink:href="#Y"/><use transform="matrix(0.05,0,0,0.05,53.900000000000006,0)" xlink:href="#K"/><use transform="matrix(0.05,0,0,0.05,57.85,0)" xlink:href="#Z"/><use transform="matrix(0.05,0,0,0.05,67.85000000000001,0)" xlink:href="#J"/><use transform="matrix(0.05,0,0,0.05,71.80000000000001,0)" xlink:href="#E"/><use transform="matrix(0.05,0,0,0.05,81.80000000000001,0)" xlink:href="#aa"/><use transform="matrix(0.05,0,0,0.05,90.80000000000001,0)" xlink:href="#E"/><use transform="matrix(0.05,0,0,0.05,100.80000000000001,0)" xlink:href="#H"/></g><path d="M233-177c-1 41-23 64-60 70L243 0h-38l-65-103H63V0H30v-248c88 3 205-21 203 71zM63-129c60-2 137 13 137-47 0-61-80-42-137-45v92" id="ab"/><path d="M27 0v-27h64v-190l-56 39v-29l58-41h29v221h61V0H27" id="ac"/><g id="g"><use transform="matrix(0.05,0,0,0.05,0,0)" xlink:href="#ab"/><use transform="matrix(0.05,0,0,0.05,12.950000000000001,0)" xlink:href="#ac"/></g><g id="h"><use transform="matrix(0.05,0,0,0.05,0,0)" xlink:href="#M"/><use transform="matrix(0.05,0,0,0.05,10,0)" xlink:href="#G"/><use transform="matrix(0.05,0,0,0.05,20,0)" xlink:href="#H"/></g><path d="M101-251c82-7 93 87 43 132L82-64C71-53 59-42 53-27h129V0H18c2-99 128-94 128-182 0-28-16-43-45-43s-46 15-49 41l-32-3c6-41 34-60 81-64" id="ad"/><g id="i"><use transform="matrix(0.05,0,0,0.05,0,0)" xlink:href="#ab"/><use transform="matrix(0.05,0,0,0.05,12.950000000000001,0)" xlink:href="#ad"/></g><path d="M63-220v92h138v28H63V0H30v-248h175v28H63" id="ae"/><path d="M185-189c-5-48-123-54-124 2 14 75 158 14 163 119 3 78-121 87-175 55-17-10-28-26-33-46l33-7c5 56 141 63 141-1 0-78-155-14-162-118-5-82 145-84 179-34 5 7 8 16 11 25" id="af"/><path d="M127-220V0H93v-220H8v-28h204v28h-85" id="ag"/><path d="M140-251c81 0 123 46 123 126C263-53 228-8 163 1c7 30 30 48 69 40v23c-55 16-95-15-103-61C56-3 17-48 17-125c0-80 42-126 123-126zm0 227c63 0 89-41 89-101s-29-99-89-99c-61 0-89 39-89 99S79-25 140-24" id="ah"/><path d="M135-143c-3-34-86-38-87 0 15 53 115 12 119 90S17 21 10-45l28-5c4 36 97 45 98 0-10-56-113-15-118-90-4-57 82-63 122-42 12 7 21 19 24 35" id="ai"/><g id="j"><use transform="matrix(0.05,0,0,0.05,0,0)" xlink:href="#ae"/><use transform="matrix(0.05,0,0,0.05,9.950000000000001,0)" xlink:href="#I"/><use transform="matrix(0.05,0,0,0.05,21.950000000000003,0)" xlink:href="#af"/><use transform="matrix(0.05,0,0,0.05,33.95,0)" xlink:href="#ag"/><use transform="matrix(0.05,0,0,0.05,44.900000000000006,0)" xlink:href="#ah"/><use transform="matrix(0.05,0,0,0.05,58.900000000000006,0)" xlink:href="#ai"/></g><g id="k"><use transform="matrix(0.05,0,0,0.05,0,0)" xlink:href="#af"/><use transform="matrix(0.05,0,0,0.05,12,0)" xlink:href="#G"/><use transform="matrix(0.05,0,0,0.05,22,0)" xlink:href="#M"/><use transform="matrix(0.05,0,0,0.05,32,0)" xlink:href="#Z"/><use transform="matrix(0.05,0,0,0.05,42,0)" xlink:href="#L"/><use transform="matrix(0.05,0,0,0.05,54,0)" xlink:href="#N"/><use transform="matrix(0.05,0,0,0.05,59.95,0)" xlink:href="#E"/></g><path d="M212-179c-10-28-35-45-73-45-59 0-87 40-87 99 0 60 29 101 89 101 43 0 62-24 78-52l27 14C228-24 195 4 139 4 59 4 22-46 18-125c-6-104 99-153 187-111 19 9 31 26 39 46" id="aj"/><path d="M179-190L93 31C79 59 56 82 12 73V49c39 6 53-20 64-50L1-190h34L92-34l54-156h33" id="ak"/><g id="l"><use transform="matrix(0.05,0,0,0.05,0,0)" xlink:href="#af"/><use transform="matrix(0.05,0,0,0.05,12,0)" xlink:href="#G"/><use transform="matrix(0.05,0,0,0.05,22,0)" xlink:href="#M"/><use transform="matrix(0.05,0,0,0.05,32,0)" xlink:href="#Z"/><use transform="matrix(0.05,0,0,0.05,42,0)" xlink:href="#aj"/><use transform="matrix(0.05,0,0,0.05,54.95,0)" xlink:href="#E"/><use transform="matrix(0.05,0,0,0.05,64.95,0)" xlink:href="#J"/><use transform="matrix(0.05,0,0,0.05,68.9,0)" xlink:href="#J"/><use transform="matrix(0.05,0,0,0.05,72.85000000000001,0)" xlink:href="#Q"/><use transform="matrix(0.05,0,0,0.05,84.85000000000001,0)" xlink:href="#ak"/><use transform="matrix(0.05,0,0,0.05,93.85000000000001,0)" xlink:href="#Q"/><use transform="matrix(0.05,0,0,0.05,105.85000000000001,0)" xlink:href="#K"/><use transform="matrix(0.05,0,0,0.05,109.80000000000001,0)" xlink:href="#G"/></g><path d="M101-251c68 0 85 55 85 127S166 4 100 4C33 4 14-52 14-124c0-73 17-127 87-127zm-1 229c47 0 54-49 54-102s-4-102-53-102c-51 0-55 48-55 102 0 53 5 102 54 102" id="al"/><g id="m"><use transform="matrix(0.05,0,0,0.05,0,0)" xlink:href="#P"/><use transform="matrix(0.05,0,0,0.05,5.95,0)" xlink:href="#ac"/><use transform="matrix(0.05,0,0,0.05,15.949999999999998,0)" xlink:href="#al"/></g><path d="M143 0L79-87 56-68V0H24v-261h32v163l83-92h37l-77 82L181 0h-38" id="am"/><path d="M115-194c53 0 69 39 70 98 0 66-23 100-70 100C84 3 66-7 56-30L54 0H23l1-261h32v101c10-23 28-34 59-34zm-8 174c40 0 45-34 45-75 0-40-5-75-45-74-42 0-51 32-51 76 0 43 10 73 51 73" id="an"/><g id="n"><use transform="matrix(0.05,0,0,0.05,0,0)" xlink:href="#am"/><use transform="matrix(0.05,0,0,0.05,9,0)" xlink:href="#an"/></g><g id="o"><use transform="matrix(0.05,0,0,0.05,0,0)" xlink:href="#an"/><use transform="matrix(0.05,0,0,0.05,10,0)" xlink:href="#K"/><use transform="matrix(0.05,0,0,0.05,13.949999999999998,0)" xlink:href="#G"/><use transform="matrix(0.05,0,0,0.05,23.95,0)" xlink:href="#ai"/><use transform="matrix(0.05,0,0,0.05,32.95,0)" xlink:href="#S"/></g><g id="p"><use transform="matrix(0.05,0,0,0.05,0,0)" xlink:href="#af"/><use transform="matrix(0.05,0,0,0.05,12,0)" xlink:href="#G"/><use transform="matrix(0.05,0,0,0.05,22,0)" xlink:href="#M"/><use transform="matrix(0.05,0,0,0.05,32,0)" xlink:href="#Z"/></g><g id="q"><use transform="matrix(0.05,0,0,0.05,0,0)" xlink:href="#ah"/><use transform="matrix(0.05,0,0,0.05,14,0)" xlink:href="#aj"/></g><path d="M240 0l2-218c-23 76-54 145-80 218h-23L58-218 59 0H30v-248h44l77 211c21-75 51-140 76-211h43V0h-30" id="ao"/><g id="r"><use transform="matrix(0.05,0,0,0.05,0,0)" xlink:href="#ao"/><use transform="matrix(0.05,0,0,0.05,14.950000000000001,0)" xlink:href="#E"/><use transform="matrix(0.05,0,0,0.05,24.950000000000003,0)" xlink:href="#Y"/><use transform="matrix(0.05,0,0,0.05,29.950000000000003,0)" xlink:href="#N"/><use transform="matrix(0.05,0,0,0.05,35.900000000000006,0)" xlink:href="#K"/><use transform="matrix(0.05,0,0,0.05,39.85000000000001,0)" xlink:href="#V"/><use transform="matrix(0.05,0,0,0.05,48.85000000000001,0)" xlink:href="#ai"/></g><g id="s"><use transform="matrix(0.05,0,0,0.05,0,0)" xlink:href="#ao"/><use transform="matrix(0.05,0,0,0.05,14.950000000000001,0)" xlink:href="#M"/><use transform="matrix(0.05,0,0,0.05,24.950000000000003,0)" xlink:href="#am"/><use transform="matrix(0.05,0,0,0.05,33.95,0)" xlink:href="#E"/><use transform="matrix(0.05,0,0,0.05,43.95,0)" xlink:href="#aj"/><use transform="matrix(0.05,0,0,0.05,56.900000000000006,0)" xlink:href="#U"/><use transform="matrix(0.05,0,0,0.05,66.9,0)" xlink:href="#X"/><use transform="matrix(0.05,0,0,0.05,81.85000000000001,0)" xlink:href="#Z"/><use transform="matrix(0.05,0,0,0.05,91.85000000000001,0)" xlink:href="#J"/><use transform="matrix(0.05,0,0,0.05,95.80000000000001,0)" xlink:href="#K"/><use transform="matrix(0.05,0,0,0.05,99.75000000000001,0)" xlink:href="#M"/><use transform="matrix(0.05,0,0,0.05,109.75,0)" xlink:href="#G"/><use transform="matrix(0.05,0,0,0.05,119.75,0)" xlink:href="#Y"/><use transform="matrix(0.05,0,0,0.05,124.75,0)" xlink:href="#Q"/><use transform="matrix(0.05,0,0,0.05,136.75,0)" xlink:href="#I"/><use transform="matrix(0.05,0,0,0.05,148.75,0)" xlink:href="#ao"/></g><g id="t"><use transform="matrix(0.05,0,0,0.05,0,0)" xlink:href="#Q"/><use transform="matrix(0.05,0,0,0.05,12,0)" xlink:href="#N"/><use transform="matrix(0.05,0,0,0.05,17.95,0)" xlink:href="#E"/><use transform="matrix(0.05,0,0,0.05,27.950000000000003,0)" xlink:href="#M"/><use transform="matrix(0.05,0,0,0.05,37.95,0)" xlink:href="#am"/><use transform="matrix(0.05,0,0,0.05,46.95,0)" xlink:href="#U"/><use transform="matrix(0.05,0,0,0.05,56.95,0)" xlink:href="#W"/><use transform="matrix(0.05,0,0,0.05,66.95,0)" xlink:href="#Y"/><use transform="matrix(0.05,0,0,0.05,71.95,0)" xlink:href="#af"/><use transform="matrix(0.05,0,0,0.05,83.95,0)" xlink:href="#G"/><use transform="matrix(0.05,0,0,0.05,93.95,0)" xlink:href="#M"/><use transform="matrix(0.05,0,0,0.05,103.95,0)" xlink:href="#Z"/></g><path d="M143 4C61 4 22-44 18-125c-5-107 100-154 193-111 17 8 29 25 37 43l-32 9c-13-25-37-40-76-40-61 0-88 39-88 99 0 61 29 100 91 101 35 0 62-11 79-27v-45h-74v-28h105v86C228-13 192 4 143 4" id="ap"/><path d="M155-56V0h-30v-56H8v-25l114-167h33v167h35v25h-35zm-30-156c-27 46-58 90-88 131h88v-131" id="aq"/><path d="M197 0v-115H63V0H30v-248h33v105h134v-105h34V0h-34" id="ar"/><path d="M16-82v-28h88v28H16" id="as"/><g id="u"><use transform="matrix(0.05,0,0,0.05,0,0)" xlink:href="#ap"/><use transform="matrix(0.05,0,0,0.05,14,0)" xlink:href="#I"/><use transform="matrix(0.05,0,0,0.05,26,0)" xlink:href="#aq"/><use transform="matrix(0.05,0,0,0.05,36,0)" xlink:href="#ap"/><use transform="matrix(0.05,0,0,0.05,50,0)" xlink:href="#ar"/><use transform="matrix(0.05,0,0,0.05,62.95,0)" xlink:href="#as"/><use transform="matrix(0.05,0,0,0.05,68.9,0)" xlink:href="#V"/><use transform="matrix(0.05,0,0,0.05,77.9,0)" xlink:href="#U"/><use transform="matrix(0.05,0,0,0.05,87.9,0)" xlink:href="#X"/><use transform="matrix(0.05,0,0,0.05,102.85000000000001,0)" xlink:href="#Z"/><use transform="matrix(0.05,0,0,0.05,112.85000000000001,0)" xlink:href="#J"/><use transform="matrix(0.05,0,0,0.05,116.80000000000001,0)" xlink:href="#K"/><use transform="matrix(0.05,0,0,0.05,120.75,0)" xlink:href="#M"/><use transform="matrix(0.05,0,0,0.05,130.75,0)" xlink:href="#G"/><use transform="matrix(0.05,0,0,0.05,140.75,0)" xlink:href="#Y"/></g><g id="v"><use transform="matrix(0.05,0,0,0.05,0,0)" xlink:href="#M"/><use transform="matrix(0.05,0,0,0.05,10,0)" xlink:href="#J"/><use transform="matrix(0.05,0,0,0.05,13.949999999999998,0)" xlink:href="#K"/><use transform="matrix(0.05,0,0,0.05,17.9,0)" xlink:href="#F"/><use transform="matrix(0.05,0,0,0.05,27.899999999999995,0)" xlink:href="#G"/><use transform="matrix(0.05,0,0,0.05,37.9,0)" xlink:href="#E"/><use transform="matrix(0.05,0,0,0.05,47.9,0)" xlink:href="#H"/></g><g id="w"><use transform="matrix(0.05,0,0,0.05,0,0)" xlink:href="#Q"/><use transform="matrix(0.05,0,0,0.05,12,0)" xlink:href="#I"/><use transform="matrix(0.05,0,0,0.05,24,0)" xlink:href="#ao"/></g><path d="M33 0v-248h34V0H33" id="at"/><g id="x"><use transform="matrix(0.05,0,0,0.05,0,0)" xlink:href="#at"/><use transform="matrix(0.05,0,0,0.05,5,0)" xlink:href="#G"/><use transform="matrix(0.05,0,0,0.05,15,0)" xlink:href="#Z"/><use transform="matrix(0.05,0,0,0.05,25,0)" xlink:href="#W"/><use transform="matrix(0.05,0,0,0.05,35,0)" xlink:href="#Y"/><use transform="matrix(0.05,0,0,0.05,40,0)" xlink:href="#ai"/></g><g id="y"><use transform="matrix(0.05,0,0,0.05,0,0)" xlink:href="#ae"/><use transform="matrix(0.05,0,0,0.05,10.950000000000001,0)" xlink:href="#K"/><use transform="matrix(0.05,0,0,0.05,14.9,0)" xlink:href="#G"/><use transform="matrix(0.05,0,0,0.05,24.900000000000002,0)" xlink:href="#M"/><use transform="matrix(0.05,0,0,0.05,34.900000000000006,0)" xlink:href="#J"/></g><path d="M140-251c81 0 123 46 123 126C263-46 219 4 140 4 59 4 17-45 17-125s42-126 123-126zm0 227c63 0 89-41 89-101s-29-99-89-99c-61 0-89 39-89 99S79-25 140-24" id="au"/><g id="z"><use transform="matrix(0.05,0,0,0.05,0,0)" xlink:href="#au"/><use transform="matrix(0.05,0,0,0.05,14,0)" xlink:href="#W"/><use transform="matrix(0.05,0,0,0.05,24,0)" xlink:href="#Y"/><use transform="matrix(0.05,0,0,0.05,29,0)" xlink:href="#Z"/><use transform="matrix(0.05,0,0,0.05,39,0)" xlink:href="#W"/><use transform="matrix(0.05,0,0,0.05,49,0)" xlink:href="#Y"/></g><g id="A"><use transform="matrix(0.05,0,0,0.05,0,0)" xlink:href="#ag"/><use transform="matrix(0.05,0,0,0.05,8.950000000000001,0)" xlink:href="#M"/><use transform="matrix(0.05,0,0,0.05,18.950000000000003,0)" xlink:href="#ai"/><use transform="matrix(0.05,0,0,0.05,27.950000000000003,0)" xlink:href="#am"/><use transform="matrix(0.05,0,0,0.05,36.95,0)" xlink:href="#ai"/></g><g id="B"><use transform="matrix(0.05,0,0,0.05,0,0)" xlink:href="#af"/><use transform="matrix(0.05,0,0,0.05,12,0)" xlink:href="#G"/><use transform="matrix(0.05,0,0,0.05,22,0)" xlink:href="#M"/><use transform="matrix(0.05,0,0,0.05,32,0)" xlink:href="#Z"/></g><path d="M137 0h-34L2-248h35l83 218 83-218h36" id="av"/><g id="C"><use transform="matrix(0.05,0,0,0.05,0,0)" xlink:href="#aj"/><use transform="matrix(0.05,0,0,0.05,12.950000000000001,0)" xlink:href="#af"/><use transform="matrix(0.05,0,0,0.05,24.950000000000003,0)" xlink:href="#av"/><use transform="matrix(0.05,0,0,0.05,36.95,0)" xlink:href="#ai"/></g></defs></g></svg>